<svg xmlns="http://www.w3.org/2000/svg" width="16" height="16" viewBox="0 0 16 16">
    <defs>
        <clipPath id="clip-logo">
            <rect width="16" height="16"/>
        </clipPath>
    </defs>
    <g clip-path="url(#clip-logo)">
        <rect width="16" height="16" fill="none"/>
        <g transform="translate(3 3)">
            <path d="M0,0H5.677A2.7,2.7,0,0,1,8,2.839,2.7,2.7,0,0,1,5.677,5.677L4.129,4.129H5.161a1.315,1.315,0,0,0,1.29-1.29,1.315,1.315,0,0,0-1.29-1.29H1.548Z"
                  fill="#fff"/>
            <path d="M0,2.5,5.313,8.078H7.437L2.125,2.5Z" transform="translate(0.563 1.672)" fill="#fff"/>
            <g transform="translate(9 8.747)" fill="none">
                <path d="M0,0H1V1H0Z" stroke="none"/>
                <path d="M -4.172325134277344e-06 -4.172325134277344e-06 L 1.003055930137634 -4.172325134277344e-06 L 1.003055930137634 1.003055930137634 L -4.172325134277344e-06 1.003055930137634 L -4.172325134277344e-06 -4.172325134277344e-06 Z"
                      stroke="none" fill="#fff"/>
            </g>
        </g>
    </g>
</svg>
